<svg width="287" height="202" viewBox="0 0 287 202" fill="none" xmlns="http://www.w3.org/2000/svg">
<g clip-path="url(#clip0)">
<path d="M21.4019 70.3764C21.2718 70.0304 21.1736 69.6731 21.1086 69.3091C20.0853 62.9991 15.2619 27.5229 42.056 15.6153C55.2508 9.751 70.2048 0.0748624 118.586 17.9611C175.686 39.0726 213.001 3.30024 221.798 3.30024C230.594 3.30024 250.533 -9.60128 273.99 15.6153C297.448 40.8319 279.855 71.3265 279.855 71.3265C279.855 71.3265 268.712 100.062 272.231 114.722C275.75 129.383 279.855 141.112 278.682 145.803C277.509 150.495 276.922 182.162 257.57 189.199C238.218 196.237 244.669 195.064 199.513 192.718C154.358 190.372 130.901 196.823 121.518 200.342C112.135 203.86 98.0604 202.687 72.8437 185.681C47.6271 168.674 41.7628 173.952 28.8613 166.329C15.9598 158.705 -16.816 116.54 10.6819 85.9873C21.311 74.1765 21.6658 71.1183 21.4019 70.3764Z" fill="#F8F8FF"/>
<path d="M6.87006 142.285C6.87006 142.285 12.4412 134.075 13.0276 132.902C13.614 131.729 13.3208 127.038 13.3208 127.038H11.2683C11.2683 127.038 13.0276 122.053 18.0123 122.053C22.997 122.053 24.463 124.399 25.0495 125.571C25.6359 126.744 25.3427 127.331 25.3427 127.331H23.5834V132.022L32.0867 146.097H35.6053V168.968C35.6053 168.968 14.7869 158.119 6.87006 142.285Z" fill="#BAC6F2"/>
<path d="M26.5156 163.103H30.6206V157.239C30.6206 157.239 28.5681 154.013 26.5156 157.239V163.103Z" fill="white"/>
<path d="M27.7911 151.178C29.221 151.178 30.3802 150.019 30.3802 148.589C30.3802 147.159 29.221 146 27.7911 146C26.3611 146 25.202 147.159 25.202 148.589C25.202 150.019 26.3611 151.178 27.7911 151.178Z" fill="#E9EDFA"/>
<path d="M8.56778 145.46C9.12429 145.068 9.81275 144.911 10.4842 145.023C11.1556 145.135 11.7559 145.507 12.1552 146.058C12.5546 146.609 12.7208 147.296 12.6179 147.969C12.515 148.641 12.1513 149.247 11.6055 149.653" fill="#E9EDFA"/>
<path d="M18.5342 139.438C19.9641 139.438 21.1233 138.279 21.1233 136.849C21.1233 135.419 19.9641 134.259 18.5342 134.259C17.1043 134.259 15.9451 135.419 15.9451 136.849C15.9451 138.279 17.1043 139.438 18.5342 139.438Z" fill="#E9EDFA"/>
<path d="M14.2298 146.51C14.2424 145.84 14.4858 145.195 14.9188 144.683C15.3261 144.178 15.8358 143.764 16.4145 143.469C16.9931 143.175 17.6276 143.006 18.2762 142.974C21.0031 142.901 22.1994 145.194 22.3665 146.132C22.6187 147.548 22.563 154.679 22.563 154.679L16.1797 154.644L14.1799 152.547L14.2298 146.51Z" fill="white"/>
<path d="M34.9367 137.042L35.6053 168.968C35.6053 168.968 47.6916 173.477 52.7877 174.553C57.8838 175.629 69.7415 182.394 69.7415 182.394L69.5421 137.192L34.9426 136.96" fill="#E9EDFA"/>
<path d="M34.6904 137.042L69.5421 137.189L69.3838 128.858H59.0626C59.0626 128.858 57.7812 123.874 52.9754 123.874C47.0788 123.874 46.0966 129.122 46.0966 129.122L34.6611 129.002L34.6904 137.042Z" fill="#BAC6F2"/>
<path d="M44.5396 141.778H38.3762V148.463H44.5396V141.778Z" fill="#BAC6F2"/>
<path d="M55.6759 141.684H49.5125V148.369H55.6759V141.684Z" fill="#BAC6F2"/>
<path d="M66.6686 141.78H60.5052V148.466H66.6686V141.78Z" fill="white"/>
<path d="M66.7624 154.357H60.599V161.042H66.7624V154.357Z" fill="#BAC6F2"/>
<path d="M66.8504 168.991H60.687V175.676H66.8504V168.991Z" fill="#BAC6F2"/>
<path d="M55.4355 154.166H49.2721V160.851H55.4355V154.166Z" fill="#BAC6F2"/>
<path d="M55.4355 154.166H49.2721V160.851H55.4355V154.166Z" fill="white"/>
<path d="M44.5865 154.453H38.4231V161.139H44.5865V154.453Z" fill="#BAC6F2"/>
<path d="M38.5609 169.982L38.514 168.029L44.4985 168.152L44.5161 172.084C44.5161 172.084 40.0856 170.612 38.5609 169.982Z" fill="#BAC6F2"/>
<path d="M49.6034 173.662L49.5154 168.683L55.5821 168.809L55.4472 175.322L49.6034 173.662Z" fill="#BAC6F2"/>
<path d="M52.647 133.691C54.519 133.691 56.0366 132.173 56.0366 130.301C56.0366 128.429 54.519 126.911 52.647 126.911C50.775 126.911 49.2574 128.429 49.2574 130.301C49.2574 132.173 50.775 133.691 52.647 133.691Z" fill="white"/>
<path d="M69.4395 159.447L69.7327 182.397C69.7327 182.397 87.9942 194.548 89.1495 195.416C90.3048 196.284 99.8548 200.913 104.197 201.204L104.98 154.893L102.415 154.793L89.8679 139.212L85.2204 138.989L69.4424 159.435" fill="#BAC6F2"/>
<path d="M69.4395 159.447L85.2351 139.605L86.9797 139.669L88.9736 139.787L90.0732 139.901L102.415 154.808L104.98 154.905V154.016L102.511 153.917L90.6889 139.467L90.7651 133.878L85.0386 133.582L84.8187 139.303L69.636 146.613L69.4395 159.447Z" fill="#E9EDFA"/>
<path d="M82.3381 155.142H79.4646V158.503H82.3381V155.142Z" fill="white"/>
<path d="M95.008 155.169H92.1345V158.529H95.008V155.169Z" fill="white"/>
<path d="M90.3458 155.16H87.4723V158.52H90.3458V155.16Z" fill="white"/>
<path d="M86.5311 155.134H83.6576V158.494H86.5311V155.134Z" fill="white"/>
<path d="M82.341 160.28H79.4675V163.64H82.341V160.28Z" fill="white"/>
<path d="M95.0109 160.306H92.1374V163.666H95.0109V160.306Z" fill="white"/>
<path d="M90.3517 160.3H87.4782V163.66H90.3517V160.3Z" fill="white"/>
<path d="M86.537 160.274H83.6634V163.634H86.537V160.274Z" fill="white"/>
<path d="M75.5238 175.459H72.6502V178.82H75.5238V175.459Z" fill="white"/>
<path d="M79.2564 171.595H76.3829V174.955H79.2564V171.595Z" fill="white"/>
<path d="M75.4417 171.568H72.5681V174.929H75.4417V171.568Z" fill="white"/>
<path d="M79.2945 175.492H76.421V178.852H79.2945V175.492Z" fill="white"/>
<path d="M86.7803 175.538H83.9068V178.899H86.7803V175.538Z" fill="white"/>
<path d="M90.51 171.674H87.6365V175.034H90.51V171.674Z" fill="white"/>
<path d="M86.6953 171.648H83.8218V175.008H86.6953V171.648Z" fill="white"/>
<path d="M90.5482 175.571H87.6746V178.931H90.5482V175.571Z" fill="white"/>
<path d="M97.6763 175.65H94.8027V179.01H97.6763V175.65Z" fill="white"/>
<path d="M101.406 171.782H98.5324V175.143H101.406V171.782Z" fill="white"/>
<path d="M97.5912 171.756H94.7177V175.116H97.5912V171.756Z" fill="white"/>
<path d="M101.444 175.682H98.5706V179.042H101.444V175.682Z" fill="white"/>
<path d="M97.5238 192.055H94.6503V196.849H97.5238V192.055Z" fill="white"/>
<path d="M101.256 188.188H98.3829V191.548H101.256V188.188Z" fill="white"/>
<path d="M97.4417 188.164H94.5682V191.525H97.4417V188.164Z" fill="white"/>
<path d="M89.9471 188.094H87.0735V191.454H89.9471V188.094Z" fill="white"/>
<path d="M89.9735 195.914L87.1029 194.046L87.0882 192.202H89.9617L89.9735 195.914Z" fill="white"/>
<path d="M86.1323 188.068H83.2588V191.428H86.1323V188.068Z" fill="white"/>
<path d="M86.1177 193.343L85.3875 192.838L84.1912 192.05L86.1118 192.055L86.1177 193.343Z" fill="white"/>
<path d="M101.295 192.088H98.421V196.861H101.295V192.088Z" fill="white"/>
<path d="M119.852 124.314H125.268L125.186 121.672L119.764 121.616L119.852 124.314Z" fill="#BAC6F2"/>
<path d="M104.737 149.099L104.218 201.201C104.218 201.201 113.525 202.635 121.896 200.521C130.267 198.406 139.961 196.122 139.961 196.122L140.284 149.595L134.648 146.827L125.505 130.641L125.28 124.314H119.855L119.682 130.641L110.05 146.542L104.737 149.099Z" fill="#E9EDFA"/>
<path d="M122.207 153.568H118.653V157.989H122.207V153.568Z" fill="#BAC6F2"/>
<path d="M127.262 153.647H123.47V157.989H127.262V153.647Z" fill="#BAC6F2"/>
<path d="M122.128 158.816H118.574V163.238H122.128V158.816Z" fill="#BAC6F2"/>
<path d="M127.183 158.896H123.391V163.238H127.183V158.896Z" fill="#BAC6F2"/>
<path d="M122.283 169.352H118.729V173.773H122.283V169.352Z" fill="#BAC6F2"/>
<path d="M113.909 169.325H110.355V173.747H113.909V169.325Z" fill="#BAC6F2"/>
<path d="M134.926 169.522H131.373V173.943H134.926V169.522Z" fill="#BAC6F2"/>
<path d="M135.029 189H131.475V193.422H135.029V189Z" fill="#BAC6F2"/>
<path d="M113.95 189.126H110.396V193.548H113.95V189.126Z" fill="#BAC6F2"/>
<path d="M127.338 169.428H123.547V173.77H127.338V169.428Z" fill="#BAC6F2"/>
<path d="M122.204 174.6H118.65V179.022H122.204V174.6Z" fill="#BAC6F2"/>
<path d="M127.259 174.679H123.468V179.022H127.259V174.679Z" fill="#BAC6F2"/>
<path d="M122.218 188.513H118.665V192.935H122.218V188.513Z" fill="#BAC6F2"/>
<path d="M127.274 188.592H123.482V192.935H127.274V188.592Z" fill="#BAC6F2"/>
<path d="M122.139 193.765H118.586V198.187H122.139V193.765Z" fill="#BAC6F2"/>
<path d="M127.194 193.844H123.403V198.187H127.194V193.844Z" fill="#BAC6F2"/>
<path d="M112.328 160.966C113.7 160.966 114.812 159.854 114.812 158.482C114.812 157.11 113.7 155.999 112.328 155.999C110.957 155.999 109.845 157.11 109.845 158.482C109.845 159.854 110.957 160.966 112.328 160.966Z" fill="#BAC6F2"/>
<path d="M132.469 161.517C133.841 161.517 134.953 160.405 134.953 159.033C134.953 157.662 133.841 156.55 132.469 156.55C131.098 156.55 129.986 157.662 129.986 159.033C129.986 160.405 131.098 161.517 132.469 161.517Z" fill="#BAC6F2"/>
<path d="M104.737 149.099H110.153L110.068 146.457L104.646 146.402L104.737 149.099Z" fill="#BAC6F2"/>
<path d="M134.859 149.595H140.275L140.19 146.953L134.771 146.897L134.859 149.595Z" fill="#BAC6F2"/>
<path d="M122.761 147.821C125.119 147.821 127.03 145.909 127.03 143.552C127.03 141.194 125.119 139.282 122.761 139.282C120.403 139.282 118.492 141.194 118.492 143.552C118.492 145.909 120.403 147.821 122.761 147.821Z" fill="#BAC6F2"/>
<path d="M138.037 149.818L138.351 172.301C138.351 172.301 139.172 196.389 139.251 196.31C141.178 194.319 170.942 192.287 174.382 192.205L173.581 145.29L171.016 145.191L158.463 129.597L153.815 129.375L138.037 149.82" fill="#BAC6F2"/>
<path d="M138.037 149.818L153.833 129.976L155.578 130.043L157.572 130.16L158.671 130.272L171.013 145.179L173.578 145.279V144.39L171.109 144.29L159.287 129.838L159.363 124.249L153.637 123.953L153.417 129.677L138.049 146.938L138.037 149.818Z" fill="#E9EDFA"/>
<path d="M150.933 145.513H148.06V148.873H150.933V145.513Z" fill="white"/>
<path d="M163.606 145.542H160.732V148.903H163.606V145.542Z" fill="white"/>
<path d="M158.944 145.534H156.07V148.894H158.944V145.534Z" fill="white"/>
<path d="M155.129 145.507H152.256V148.868H155.129V145.507Z" fill="white"/>
<path d="M150.939 150.65H148.065V154.011H150.939V150.65Z" fill="white"/>
<path d="M163.609 150.68H160.735V154.04H163.609V150.68Z" fill="white"/>
<path d="M158.95 150.671H156.076V154.031H158.95V150.671Z" fill="white"/>
<path d="M155.135 150.644H152.261V154.005H155.135V150.644Z" fill="white"/>
<path d="M144.189 168.243H141.316V171.604H144.189V168.243Z" fill="white"/>
<path d="M147.919 164.379H145.045V167.739H147.919V164.379Z" fill="white"/>
<path d="M144.104 164.352H141.231V167.713H144.104V164.352Z" fill="white"/>
<path d="M147.957 168.276H145.083V171.636H147.957V168.276Z" fill="white"/>
<path d="M155.443 168.322H152.569V171.683H155.443V168.322Z" fill="white"/>
<path d="M159.175 164.458H156.302V167.818H159.175V164.458Z" fill="white"/>
<path d="M155.361 164.431H152.487V167.792H155.361V164.431Z" fill="white"/>
<path d="M159.214 168.355H156.34V171.715H159.214V168.355Z" fill="white"/>
<path d="M166.339 168.434H163.465V171.794H166.339V168.434Z" fill="white"/>
<path d="M170.071 164.566H167.198V167.927H170.071V164.566Z" fill="white"/>
<path d="M166.257 164.54H163.383V167.9H166.257V164.54Z" fill="white"/>
<path d="M170.11 168.466H167.236V171.826H170.11V168.466Z" fill="white"/>
<path d="M144.268 182.98H141.395V186.341H144.268V182.98Z" fill="white"/>
<path d="M147.998 179.113H145.125V182.473H147.998V179.113Z" fill="white"/>
<path d="M144.183 179.086H141.31V182.447H144.183V179.086Z" fill="white"/>
<path d="M148.036 183.01H145.163V186.37H148.036V183.01Z" fill="white"/>
<path d="M155.522 183.06H152.648V186.42H155.522V183.06Z" fill="white"/>
<path d="M159.255 179.192H156.381V182.552H159.255V179.192Z" fill="white"/>
<path d="M155.44 179.166H152.566V182.526H155.44V179.166Z" fill="white"/>
<path d="M159.293 183.089H156.419V186.449H159.293V183.089Z" fill="white"/>
<path d="M166.418 183.168H163.544V186.528H166.418V183.168Z" fill="white"/>
<path d="M170.151 179.303H167.277V182.664H170.151V179.303Z" fill="white"/>
<path d="M166.336 179.277H163.462V182.637H166.336V179.277Z" fill="white"/>
<path d="M170.189 183.2H167.315V186.56H170.189V183.2Z" fill="white"/>
<path d="M176.936 139.109C176.936 139.109 184.518 127.038 185.105 125.865C185.691 124.692 185.398 120 185.398 120H183.345C183.345 120 185.105 115.016 190.089 115.016C195.074 115.016 196.54 117.361 197.126 118.534C197.713 119.707 197.42 120.294 197.42 120.294H195.66V124.985L204.164 139.059H207.682L208.838 193.278C208.838 193.278 175.39 191.709 174.684 192.181C174.464 192.328 174.481 190.795 174.446 190.528C174.3 189.384 173.048 147.909 173.678 139.159C173.678 139.168 176.959 139.106 176.936 139.109Z" fill="#E9EDFA"/>
<path d="M198.452 156.207H202.557V150.342C202.557 150.342 200.504 147.117 198.452 150.342V156.207Z" fill="white"/>
<path d="M178.739 156.679H182.844V150.814C182.844 150.814 180.791 147.589 178.739 150.814V156.679Z" fill="white"/>
<path d="M178.739 171.818H182.844V165.953C182.844 165.953 180.791 162.728 178.739 165.953V171.818Z" fill="white"/>
<path d="M188.541 171.994H192.646V166.129C192.646 166.129 190.594 162.904 188.541 166.129V171.994Z" fill="white"/>
<path d="M198.34 172.169H202.445V166.305C202.445 166.305 200.393 163.08 198.34 166.305V172.169Z" fill="white"/>
<path d="M178.988 186.302H183.093V180.438C183.093 180.438 181.041 177.213 178.988 180.438V186.302Z" fill="white"/>
<path d="M188.793 186.478H192.898V180.614C192.898 180.614 190.846 177.389 188.793 180.614V186.478Z" fill="white"/>
<path d="M198.598 186.657H202.703V180.793C202.703 180.793 200.651 177.568 198.598 180.793V186.657Z" fill="white"/>
<path d="M199.727 144.279C201.157 144.279 202.316 143.12 202.316 141.69C202.316 140.26 201.157 139.101 199.727 139.101C198.297 139.101 197.138 140.26 197.138 141.69C197.138 143.12 198.297 144.279 199.727 144.279Z" fill="#E9EDFA"/>
<path d="M181.219 143.886C182.649 143.886 183.809 142.727 183.809 141.297C183.809 139.867 182.649 138.708 181.219 138.708C179.79 138.708 178.63 139.867 178.63 141.297C178.63 142.727 179.79 143.886 181.219 143.886Z" fill="#E9EDFA"/>
<path d="M190.667 156.661C192.097 156.661 193.256 155.502 193.256 154.072C193.256 152.642 192.097 151.483 190.667 151.483C189.237 151.483 188.078 152.642 188.078 154.072C188.078 155.502 189.237 156.661 190.667 156.661Z" fill="#E9EDFA"/>
<path d="M190.473 132.541C191.903 132.541 193.062 131.382 193.062 129.952C193.062 128.522 191.903 127.363 190.473 127.363C189.043 127.363 187.884 128.522 187.884 129.952C187.884 131.382 189.043 132.541 190.473 132.541Z" fill="#E9EDFA"/>
<path d="M186.169 139.614C186.182 138.944 186.425 138.298 186.858 137.787C187.265 137.281 187.775 136.867 188.354 136.573C188.932 136.278 189.567 136.109 190.215 136.077C192.942 136.004 194.139 138.297 194.306 139.235C194.558 140.652 194.502 147.783 194.502 147.783H186.075L186.119 145.663L186.169 139.614Z" fill="white"/>
<path d="M207.829 149.296L208.709 193.334C208.709 193.334 218.361 193.434 224.27 194.169C229.439 194.815 241.863 194.219 241.863 194.219L242.449 149.445L207.849 149.214" fill="#BAC6F2"/>
<path d="M207.583 149.296L242.434 149.442L242.276 141.112H231.952C231.952 141.112 230.67 136.127 225.865 136.127C219.968 136.127 218.986 141.376 218.986 141.376L207.55 141.256L207.583 149.296Z" fill="#E9EDFA"/>
<path d="M217.432 154.031H211.268V160.716H217.432V154.031Z" fill="white"/>
<path d="M228.568 153.934H222.405V160.62H228.568V153.934Z" fill="white"/>
<path d="M239.561 154.031H233.397V160.716H239.561V154.031Z" fill="white"/>
<path d="M239.655 166.607H233.491V173.292H239.655V166.607Z" fill="white"/>
<path d="M239.743 181.244H233.579V187.93H239.743V181.244Z" fill="white"/>
<path d="M228.577 180.975H222.413V187.66H228.577V180.975Z" fill="white"/>
<path d="M217.435 180.837H211.271V187.522H217.435V180.837Z" fill="white"/>
<path d="M228.328 166.417H222.164V173.102H228.328V166.417Z" fill="white"/>
<path d="M228.328 166.417H222.164V173.102H228.328V166.417Z" fill="white"/>
<path d="M217.479 166.704H211.315V173.389H217.479V166.704Z" fill="white"/>
<path d="M225.539 145.941C227.411 145.941 228.929 144.424 228.929 142.552C228.929 140.68 227.411 139.162 225.539 139.162C223.667 139.162 222.15 140.68 222.15 142.552C222.15 144.424 223.667 145.941 225.539 145.941Z" fill="white"/>
<path d="M257.409 111.556H262.825L262.74 108.917L257.318 108.858L257.409 111.556Z" fill="white"/>
<path d="M242.294 136.344L241.645 194.287C241.645 194.287 253.239 191.355 260.581 187.707C267.539 184.256 270.844 176.659 271.636 175.175C271.719 175.016 271.79 174.85 271.847 174.679L275.87 162.722C275.982 162.394 276.065 162.056 276.119 161.713L277.955 149.914L278.834 144.513C278.887 144.179 278.887 143.839 278.834 143.505L277.864 137.08C277.852 137.008 277.824 136.94 277.78 136.881C277.737 136.822 277.68 136.775 277.614 136.743L272.178 134.075L263.036 117.889L262.81 111.562H257.394L257.221 117.889L247.601 133.782L242.294 136.344Z" fill="#E9EDFA"/>
<path d="M259.763 140.813H256.21V145.235H259.763V140.813Z" fill="white"/>
<path d="M264.815 140.889H261.024V145.232H264.815V140.889Z" fill="white"/>
<path d="M259.684 146.061H256.13V150.483H259.684V146.061Z" fill="white"/>
<path d="M264.736 146.141H260.945V150.483H264.736V146.141Z" fill="white"/>
<path d="M259.84 156.594H256.286V161.015H259.84V156.594Z" fill="white"/>
<path d="M251.465 156.57H247.912V160.992H251.465V156.57Z" fill="white"/>
<path d="M272.483 156.767H268.929V161.188H272.483V156.767Z" fill="white"/>
<path d="M270.073 178.254L269.006 179.79L269.14 175.914L271.298 175.826L270.073 178.254Z" fill="white"/>
<path d="M251.506 176.371H247.953V180.793H251.506V176.371Z" fill="white"/>
<path d="M264.892 156.673H261.1V161.015H264.892V156.673Z" fill="white"/>
<path d="M259.76 161.845H256.207V166.267H259.76V161.845Z" fill="white"/>
<path d="M264.813 161.924H261.021V166.267H264.813V161.924Z" fill="white"/>
<path d="M259.775 175.758H256.221V180.18H259.775V175.758Z" fill="white"/>
<path d="M264.827 175.838H261.036V180.18H264.827V175.838Z" fill="white"/>
<path d="M259.696 181.01H256.142V185.432H259.696V181.01Z" fill="white"/>
<path d="M264.449 185.124L264.047 185.432H260.957V181.089H264.748V184.836L264.449 185.124Z" fill="white"/>
<path d="M249.885 148.208C251.256 148.208 252.368 147.096 252.368 145.724C252.368 144.353 251.256 143.241 249.885 143.241C248.513 143.241 247.401 144.353 247.401 145.724C247.401 147.096 248.513 148.208 249.885 148.208Z" fill="white"/>
<path d="M270.026 148.762C271.398 148.762 272.509 147.65 272.509 146.278C272.509 144.907 271.398 143.795 270.026 143.795C268.654 143.795 267.542 144.907 267.542 146.278C267.542 147.65 268.654 148.762 270.026 148.762Z" fill="white"/>
<path d="M242.291 136.344H247.706L247.624 133.702L242.203 133.647L242.291 136.344Z" fill="white"/>
<path d="M272.416 136.84H277.831L277.479 135.183L277.251 134.192L272.325 134.142L272.416 136.84Z" fill="white"/>
<path d="M260.315 135.066C262.672 135.066 264.584 133.154 264.584 130.797C264.584 128.439 262.672 126.527 260.315 126.527C257.957 126.527 256.045 128.439 256.045 130.797C256.045 133.154 257.957 135.066 260.315 135.066Z" fill="white"/>
</g>
<defs>
<clipPath id="clip0">
<rect width="286.188" height="201.953" fill="white"/>
</clipPath>
</defs>
</svg>
