<svg width="287" height="160" viewBox="0 0 287 160" fill="none" xmlns="http://www.w3.org/2000/svg">
<g id="bg-11 1">
<g id="Elippses">
<g id="elip-1">
<path id="Vector" d="M80.5774 95.4194C81.7389 95.4194 82.6804 94.4779 82.6804 93.3165C82.6804 92.1551 81.7389 91.2135 80.5774 91.2135C79.416 91.2135 78.4745 92.1551 78.4745 93.3165C78.4745 94.4779 79.416 95.4194 80.5774 95.4194Z" fill="white"/>
<path id="Vector_2" d="M156.81 121.181C158.116 121.181 159.175 120.121 159.175 118.815C159.175 117.508 158.116 116.449 156.81 116.449C155.503 116.449 154.444 117.508 154.444 118.815C154.444 120.121 155.503 121.181 156.81 121.181Z" fill="white"/>
<path id="Vector_3" d="M168.376 95.4194C169.682 95.4194 170.742 94.3602 170.742 93.0536C170.742 91.747 169.682 90.6878 168.376 90.6878C167.069 90.6878 166.01 91.747 166.01 93.0536C166.01 94.3602 167.069 95.4194 168.376 95.4194Z" fill="white"/>
<path id="Vector_4" d="M198.606 84.116C199.912 84.116 200.972 83.0568 200.972 81.7502C200.972 80.4436 199.912 79.3844 198.606 79.3844C197.299 79.3844 196.24 80.4436 196.24 81.7502C196.24 83.0568 197.299 84.116 198.606 84.116Z" fill="white"/>
<path id="Vector_5" d="M198.474 119.866C199.854 119.866 200.972 118.748 200.972 117.369C200.972 115.99 199.854 114.872 198.474 114.872C197.095 114.872 195.977 115.99 195.977 117.369C195.977 118.748 197.095 119.866 198.474 119.866Z" fill="white"/>
<path id="Vector_6" d="M224.236 116.449C225.615 116.449 226.733 115.331 226.733 113.952C226.733 112.573 225.615 111.454 224.236 111.454C222.856 111.454 221.738 112.573 221.738 113.952C221.738 115.331 222.856 116.449 224.236 116.449Z" fill="white"/>
<path id="Vector_7" d="M147.083 105.671C148.39 105.671 149.449 104.612 149.449 103.306C149.449 101.999 148.39 100.94 147.083 100.94C145.777 100.94 144.718 101.999 144.718 103.306C144.718 104.612 145.777 105.671 147.083 105.671Z" fill="white"/>
<path id="Vector_8" d="M162.33 126.701C163.636 126.701 164.696 125.642 164.696 124.335C164.696 123.028 163.636 121.969 162.33 121.969C161.023 121.969 159.964 123.028 159.964 124.335C159.964 125.642 161.023 126.701 162.33 126.701Z" fill="white"/>
<path id="Vector_9" d="M179.416 108.563C180.723 108.563 181.782 107.504 181.782 106.197C181.782 104.89 180.723 103.831 179.416 103.831C178.11 103.831 177.05 104.89 177.05 106.197C177.05 107.504 178.11 108.563 179.416 108.563Z" fill="white"/>
<path id="Vector_10" d="M118.299 114.872C119.533 114.872 120.534 113.871 120.534 112.637C120.534 111.403 119.533 110.403 118.299 110.403C117.065 110.403 116.065 111.403 116.065 112.637C116.065 113.871 117.065 114.872 118.299 114.872Z" fill="white"/>
<path id="Vector_11" d="M140.909 86.2111C142.143 86.2111 143.143 85.2107 143.143 83.9767C143.143 82.7427 142.143 81.7423 140.909 81.7423C139.675 81.7423 138.674 82.7427 138.674 83.9767C138.674 85.2107 139.675 86.2111 140.909 86.2111Z" fill="white"/>
<path id="Vector_12" d="M72 129.958L80.5774 93.3165L117.379 112.769L146.82 103.306L156.81 118.815L162.33 125.124L179.416 105.934L198.343 117.763L223.841 113.82" stroke="white" stroke-width="0.788608" stroke-linecap="round" stroke-linejoin="round"/>
<path id="Vector_13" d="M147.838 103.316L168.055 92.7776L198.606 81.7502" stroke="white" stroke-width="0.788608" stroke-miterlimit="10"/>
<path id="Vector_14" d="M140.909 83.9767L146.82 103.306" stroke="white" stroke-width="0.788608" stroke-linecap="round" stroke-linejoin="round"/>
</g>
<g id="stars">
<path id="Vector_15" d="M97.0068 81.7502C97.6601 81.7502 98.1897 81.2206 98.1897 80.5673C98.1897 79.914 97.6601 79.3844 97.0068 79.3844C96.3535 79.3844 95.8239 79.914 95.8239 80.5673C95.8239 81.2206 96.3535 81.7502 97.0068 81.7502Z" fill="white"/>
<path id="Vector_16" d="M101.081 113.82C101.807 113.82 102.396 113.232 102.396 112.506C102.396 111.78 101.807 111.192 101.081 111.192C100.355 111.192 99.7669 111.78 99.7669 112.506C99.7669 113.232 100.355 113.82 101.081 113.82Z" fill="white"/>
<path id="Vector_17" d="M89.9093 132.221C90.7078 132.221 91.3551 131.574 91.3551 130.775C91.3551 129.977 90.7078 129.33 89.9093 129.33C89.1108 129.33 88.4635 129.977 88.4635 130.775C88.4635 131.574 89.1108 132.221 89.9093 132.221Z" fill="white"/>
<path id="Vector_18" d="M123.294 138.267C124.092 138.267 124.739 137.62 124.739 136.821C124.739 136.023 124.092 135.376 123.294 135.376C122.495 135.376 121.848 136.023 121.848 136.821C121.848 137.62 122.495 138.267 123.294 138.267Z" fill="white"/>
<path id="Vector_19" d="M185.725 137.741C186.596 137.741 187.302 137.035 187.302 136.164C187.302 135.293 186.596 134.587 185.725 134.587C184.854 134.587 184.148 135.293 184.148 136.164C184.148 137.035 184.854 137.741 185.725 137.741Z" fill="white"/>
<path id="Vector_20" d="M211.618 103.831C212.416 103.831 213.064 103.184 213.064 102.385C213.064 101.587 212.416 100.94 211.618 100.94C210.819 100.94 210.172 101.587 210.172 102.385C210.172 103.184 210.819 103.831 211.618 103.831Z" fill="white"/>
<path id="Vector_21" d="M259.591 70.184C260.317 70.184 260.906 69.5955 260.906 68.8696C260.906 68.1438 260.317 67.5553 259.591 67.5553C258.866 67.5553 258.277 68.1438 258.277 68.8696C258.277 69.5955 258.866 70.184 259.591 70.184Z" fill="white"/>
<path id="Vector_22" d="M235.539 139.844C236.337 139.844 236.985 139.197 236.985 138.399C236.985 137.6 236.337 136.953 235.539 136.953C234.74 136.953 234.093 137.6 234.093 138.399C234.093 139.197 234.74 139.844 235.539 139.844Z" fill="white"/>
<path id="Vector_23" d="M119.614 68.8696C120.267 68.8696 120.796 68.34 120.796 67.6867C120.796 67.0334 120.267 66.5038 119.614 66.5038C118.96 66.5038 118.431 67.0334 118.431 67.6867C118.431 68.34 118.96 68.8696 119.614 68.8696Z" fill="white"/>
<path id="Vector_24" d="M205.44 48.103C206.021 48.103 206.492 47.6322 206.492 47.0515C206.492 46.4708 206.021 46 205.44 46C204.86 46 204.389 46.4708 204.389 47.0515C204.389 47.6322 204.86 48.103 205.44 48.103Z" fill="white"/>
<path id="Vector_25" d="M142.746 74.127C143.399 74.127 143.929 73.5974 143.929 72.9441C143.929 72.2908 143.399 71.7612 142.746 71.7612C142.093 71.7612 141.563 72.2908 141.563 72.9441C141.563 73.5974 142.093 74.127 142.746 74.127Z" fill="white"/>
<path id="Vector_26" d="M179.942 66.5038C180.523 66.5038 180.994 66.033 180.994 65.4523C180.994 64.8716 180.523 64.4008 179.942 64.4008C179.361 64.4008 178.891 64.8716 178.891 65.4523C178.891 66.033 179.361 66.5038 179.942 66.5038Z" fill="white"/>
<path id="Vector_27" d="M117.773 93.3165C118.282 93.3165 118.693 92.9045 118.693 92.3964C118.693 91.8883 118.282 91.4764 117.773 91.4764C117.265 91.4764 116.853 91.8883 116.853 92.3964C116.853 92.9045 117.265 93.3165 117.773 93.3165Z" fill="white"/>
<path id="Vector_28" d="M222.001 57.0405C222.872 57.0405 223.578 56.3344 223.578 55.4633C223.578 54.5922 222.872 53.8861 222.001 53.8861C221.13 53.8861 220.424 54.5922 220.424 55.4633C220.424 56.3344 221.13 57.0405 222.001 57.0405Z" fill="white"/>
<path id="Vector_29" d="M192.034 70.9726C192.615 70.9726 193.085 70.5018 193.085 69.9211C193.085 69.3404 192.615 68.8696 192.034 68.8696C191.453 68.8696 190.983 69.3404 190.983 69.9211C190.983 70.5018 191.453 70.9726 192.034 70.9726Z" fill="white"/>
<path id="Vector_30" d="M85.8348 66.5038C86.5607 66.5038 87.1492 65.9154 87.1492 65.1895C87.1492 64.4636 86.5607 63.8751 85.8348 63.8751C85.1089 63.8751 84.5205 64.4636 84.5205 65.1895C84.5205 65.9154 85.1089 66.5038 85.8348 66.5038Z" fill="white"/>
</g>
<g id="elip-2">
<path id="Vector_31" d="M231.464 83.8532C232.045 83.8532 232.516 83.3824 232.516 82.8017C232.516 82.221 232.045 81.7502 231.464 81.7502C230.884 81.7502 230.413 82.221 230.413 82.8017C230.413 83.3824 230.884 83.8532 231.464 83.8532Z" fill="white"/>
<path id="Vector_32" d="M247.631 88.5848C248.429 88.5848 249.077 87.9375 249.077 87.139C249.077 86.3406 248.429 85.6933 247.631 85.6933C246.832 85.6933 246.185 86.3406 246.185 87.139C246.185 87.9375 246.832 88.5848 247.631 88.5848Z" fill="white"/>
<path id="Vector_33" d="M242.505 104.62C243.231 104.62 243.819 104.031 243.819 103.305C243.819 102.58 243.231 101.991 242.505 101.991C241.779 101.991 241.191 102.58 241.191 103.305C241.191 104.031 241.779 104.62 242.505 104.62Z" fill="white"/>
<path id="Vector_34" d="M257.226 122.232L242.505 103.306L247.499 87.0076L231.464 82.8017" stroke="white" stroke-width="0.788608" stroke-miterlimit="10"/>
<path id="Vector_35" d="M257.226 123.546C257.952 123.546 258.54 122.958 258.54 122.232C258.54 121.506 257.952 120.918 257.226 120.918C256.5 120.918 255.911 121.506 255.911 122.232C255.911 122.958 256.5 123.546 257.226 123.546Z" fill="white"/>
</g>
</g>
</g>
</svg>
