<svg width="1280" height="763" viewBox="0 0 1280 763" fill="none" xmlns="http://www.w3.org/2000/svg">
<g id="3038406 1">
<path id="Vector 1" d="M453 218.5V246.5L485.5 237.5V218.5H453ZM453 218.5L485.5 186L532.5 202L541.5 293.5L478 390L354 471H266.5L215 370.5L234 279L314 169.5L435 94L524 67.5L642 78L732.5 143L763.5 153.5V348.5L658.5 517L516.5 570L340.5 559.5L162 551L191.5 527L363 543.5H420.5L569.5 434L609.5 370.5L673 267L739.5 174L802 115L831.5 101.5L951 58.5L1020.5 125L1025 225.5L1008.5 125" stroke="black" stroke-linecap="round" stroke-linejoin="round"/>
<g id="letterD">
<g id="Vector" filter="url(#filter0_d)">
<mask id="path-2-inside-1" fill="white">
<path d="M531.195 58.9772C452.695 66.2773 381.895 95.5772 316.495 147.677C300.195 160.677 270.895 189.677 259.595 203.877C236.695 232.877 220.995 263.377 212.495 295.677C210.895 302.077 208.795 309.577 208.095 312.177C204.695 323.577 203.295 337.177 203.295 359.377C203.195 377.177 203.595 382.977 205.095 389.877C210.595 414.977 220.695 433.877 237.095 449.677C259.795 471.377 285.395 480.877 321.695 480.877C343.095 480.877 360.595 477.677 380.195 470.377C413.495 457.777 452.095 429.477 484.995 393.377C523.995 350.677 544.095 311.177 548.795 268.077C550.095 255.477 548.595 232.577 545.595 221.877C539.895 200.977 523.895 185.177 503.595 180.377C495.395 178.477 481.995 178.477 473.795 180.377C457.695 184.177 443.095 196.677 439.795 209.377C439.295 211.577 438.095 216.077 437.295 219.477C431.495 241.677 441.495 257.877 460.895 257.877C470.395 257.877 477.495 254.977 483.995 248.577C491.095 241.577 493.995 235.277 494.095 226.677C494.195 222.577 493.695 219.477 492.995 218.777C492.295 218.077 491.695 215.277 491.695 212.677C491.695 209.977 491.095 206.377 490.295 204.577L488.995 201.277L495.395 201.477C504.195 201.777 512.995 206.077 521.095 214.277C534.595 227.777 540.695 248.077 537.195 267.977C531.395 301.977 509.995 339.677 475.895 376.077C434.395 420.477 392.995 448.177 354.295 457.377C303.095 469.577 258.795 453.477 240.895 416.077C236.295 406.477 234.895 393.277 236.595 375.077C245.095 280.877 331.295 166.977 433.995 114.077C463.495 98.8772 499.395 86.5772 531.395 80.7773C546.295 78.0772 580.195 77.0772 596.895 78.7773C634.095 82.6772 666.095 94.9772 692.195 115.377C706.295 126.377 726.695 148.977 730.395 157.677L731.795 160.977L717.795 175.677C679.195 216.477 655.195 248.377 614.595 312.377C565.595 389.977 525.495 445.877 498.695 474.277C478.995 494.977 451.595 513.277 420.395 526.277C407.895 531.577 379.295 540.977 375.695 541.077C374.295 541.077 362.395 538.877 349.195 536.077C278.595 521.077 243.795 516.177 215.795 517.177C196.095 517.877 183.995 519.777 169.695 524.477C152.795 530.077 145.695 535.977 147.195 542.977C147.595 544.577 148.295 546.077 148.695 546.377C149.195 546.677 149.095 547.977 148.495 549.377C146.895 552.977 148.295 558.377 151.695 561.177C157.695 566.277 185.495 571.277 216.195 572.977C238.395 574.177 269.195 572.977 282.695 570.277C292.795 568.377 367.795 566.377 375.695 567.977C378.695 568.477 390.695 569.377 402.195 569.877C413.795 570.377 432.195 571.277 443.195 571.877C466.395 573.177 487.095 571.877 484.495 569.377C484.295 569.077 473.695 567.977 461.095 566.877C427.995 563.877 423.795 563.077 419.695 559.077C418.395 557.677 419.095 557.577 426.195 558.177C453.195 560.477 473.395 561.077 491.295 559.977C527.595 557.777 554.095 552.877 587.495 542.277C589.295 541.677 572.695 549.977 556.695 557.677C548.195 561.777 547.495 562.277 550.195 562.677C557.695 563.677 588.695 557.277 603.695 551.577C671.295 525.777 734.595 467.777 764.395 404.177C782.995 364.477 791.895 316.677 788.795 273.077C787.295 251.977 785.595 242.177 779.695 219.777C775.195 202.877 772.995 196.177 764.495 173.877C761.095 165.077 762.695 162.077 778.295 147.877C813.295 115.877 850.995 93.9772 882.195 87.4772C920.695 79.4772 957.595 85.0772 983.695 102.877C1000.5 114.277 1014 131.777 1020 149.777C1021.5 154.277 1022.7 156.377 1022.9 155.277C1023.2 154.177 1023.7 157.777 1024.2 163.277C1025.6 180.877 1022.9 204.877 1017.7 219.577C1015.3 226.577 1015.4 230.177 1017.9 230.677C1020.6 231.177 1023.4 225.577 1026.1 213.977C1030.1 196.877 1031.1 188.377 1031.1 171.377C1031 141.677 1024.1 119.777 1008.7 100.577C986.195 72.4772 953.895 60.5772 911.195 64.7773C856.695 70.0772 809.395 92.9772 753.095 141.377L748.995 144.877L741.795 135.477C708.995 92.3772 661.195 66.1772 603.095 59.3773C588.995 57.7772 547.095 57.4772 531.195 58.9772ZM598.695 65.9772C620.695 68.0772 645.095 74.4772 663.295 82.8772C672.095 86.9772 688.195 96.2773 689.195 97.8772C689.495 98.4772 687.195 97.2773 683.995 95.3772C663.995 83.6772 628.895 73.9772 594.695 70.7773C578.895 69.3772 520.295 70.1772 509.395 71.9772C498.395 73.7773 500.695 72.3772 512.395 70.0772C541.795 64.3772 568.495 63.0772 598.695 65.9772ZM938.695 71.8772C962.195 74.5772 984.195 84.9772 998.195 99.9772C1000.8 102.677 999.595 101.977 994.995 97.7773C982.895 86.9772 972.995 81.9772 956.095 78.2773C945.695 75.9772 921.295 75.9772 906.195 78.2773C870.395 83.7773 819.495 102.377 796.195 118.577C791.195 121.977 791.195 122.077 794.695 118.877C801.595 112.677 821.495 100.277 836.295 92.7773C870.295 75.7773 906.995 68.2773 938.695 71.8772ZM500.395 73.4772C500.095 73.7773 499.195 73.8772 498.495 73.5772C497.695 73.2773 497.995 72.9772 499.095 72.9772C500.195 72.8772 500.795 73.1772 500.395 73.4772ZM695.795 102.577C697.095 104.177 696.995 104.277 695.495 102.977C694.495 102.277 693.695 101.477 693.695 101.277C693.695 100.477 694.495 100.977 695.795 102.577ZM790.695 122.277C790.695 122.477 789.895 123.277 788.995 123.977C787.395 125.277 787.295 125.177 788.595 123.577C789.895 121.977 790.695 121.477 790.695 122.277ZM499.995 187.377C508.695 189.177 517.295 193.777 522.795 199.577L527.195 204.277L522.495 200.177C513.395 192.477 495.395 189.177 479.195 192.377C474.195 193.377 469.795 194.477 469.295 194.977C468.695 195.477 466.795 195.877 464.995 195.877C462.195 195.877 461.695 195.577 461.695 193.377C461.695 188.777 469.995 186.177 485.195 185.977C489.595 185.977 496.195 186.577 499.995 187.377ZM745.795 190.877C746.795 191.477 748.595 193.777 749.695 195.977C752.595 201.677 757.395 221.277 759.195 235.177C761.095 250.177 761.095 277.077 759.195 291.377C758.295 297.377 757.195 305.477 756.695 309.377C753.995 329.877 739.495 367.377 722.695 397.477C669.795 491.877 599.495 543.777 511.895 552.977C496.895 554.477 447.195 553.577 432.295 551.477C426.295 550.677 421.295 549.777 421.095 549.677C420.995 549.477 425.595 547.877 431.495 546.077C452.095 539.777 467.395 533.677 487.195 523.877C521.095 507.077 542.095 492.577 564.295 470.377C581.495 453.277 592.095 440.077 608.195 415.877C627.395 386.877 639.895 364.277 660.795 320.077C684.795 269.377 702.495 238.877 726.895 205.677C737.795 190.877 740.995 188.377 745.795 190.877ZM442.695 419.277C442.695 419.477 441.895 420.277 440.995 420.977C439.395 422.277 439.295 422.177 440.595 420.577C441.895 418.977 442.695 418.477 442.695 419.277ZM437.695 423.277C437.695 423.477 436.895 424.277 435.995 424.977C434.395 426.277 434.295 426.177 435.595 424.577C436.895 422.977 437.695 422.477 437.695 423.277ZM433.695 426.277C433.695 426.477 432.895 427.277 431.995 427.977C430.395 429.277 430.295 429.177 431.595 427.577C432.895 425.977 433.695 425.477 433.695 426.277ZM429.695 429.277C429.695 431.277 395.595 452.577 383.195 458.377C360.695 468.977 343.595 473.177 322.195 473.177C303.195 473.177 292.295 470.577 278.395 462.877C268.895 457.577 268.995 457.477 279.395 461.477C297.795 468.477 326.395 470.377 348.595 465.977C354.895 464.777 364.795 462.177 370.595 460.277C384.295 455.777 406.495 444.677 419.195 435.877C430.195 428.377 429.695 428.677 429.695 429.277ZM419.195 537.477C405.095 544.377 399.195 546.177 393.095 545.277C388.395 544.577 388.495 544.577 405.795 539.277C415.395 536.377 424.295 533.577 425.695 532.977C432.295 530.377 429.095 532.477 419.195 537.477ZM164.495 536.377C162.495 537.077 159.695 538.477 158.295 539.377C156.895 540.377 155.695 540.677 155.695 540.077C155.695 538.577 157.795 537.177 161.695 536.077C166.795 534.577 168.795 534.777 164.495 536.377ZM242.195 551.877C248.895 552.377 242.395 552.577 222.695 552.277C206.495 551.977 190.995 551.377 188.195 550.877C182.195 549.777 226.995 550.577 242.195 551.877ZM183.595 557.877C200.995 559.977 234.495 561.077 258.995 560.477C276.395 559.977 283.695 560.077 283.195 560.777C282.895 561.377 283.295 561.877 284.095 561.877C284.995 561.877 285.695 562.477 285.695 563.277C285.695 565.877 277.595 566.177 237.195 565.577C182.195 564.677 169.195 563.177 171.095 558.277C171.395 557.577 171.095 556.777 170.395 556.477C169.695 556.177 170.595 556.077 172.195 556.377C173.895 556.577 178.995 557.277 183.595 557.877Z"/>
</mask>
<path d="M531.195 58.9772C452.695 66.2773 381.895 95.5772 316.495 147.677C300.195 160.677 270.895 189.677 259.595 203.877C236.695 232.877 220.995 263.377 212.495 295.677C210.895 302.077 208.795 309.577 208.095 312.177C204.695 323.577 203.295 337.177 203.295 359.377C203.195 377.177 203.595 382.977 205.095 389.877C210.595 414.977 220.695 433.877 237.095 449.677C259.795 471.377 285.395 480.877 321.695 480.877C343.095 480.877 360.595 477.677 380.195 470.377C413.495 457.777 452.095 429.477 484.995 393.377C523.995 350.677 544.095 311.177 548.795 268.077C550.095 255.477 548.595 232.577 545.595 221.877C539.895 200.977 523.895 185.177 503.595 180.377C495.395 178.477 481.995 178.477 473.795 180.377C457.695 184.177 443.095 196.677 439.795 209.377C439.295 211.577 438.095 216.077 437.295 219.477C431.495 241.677 441.495 257.877 460.895 257.877C470.395 257.877 477.495 254.977 483.995 248.577C491.095 241.577 493.995 235.277 494.095 226.677C494.195 222.577 493.695 219.477 492.995 218.777C492.295 218.077 491.695 215.277 491.695 212.677C491.695 209.977 491.095 206.377 490.295 204.577L488.995 201.277L495.395 201.477C504.195 201.777 512.995 206.077 521.095 214.277C534.595 227.777 540.695 248.077 537.195 267.977C531.395 301.977 509.995 339.677 475.895 376.077C434.395 420.477 392.995 448.177 354.295 457.377C303.095 469.577 258.795 453.477 240.895 416.077C236.295 406.477 234.895 393.277 236.595 375.077C245.095 280.877 331.295 166.977 433.995 114.077C463.495 98.8772 499.395 86.5772 531.395 80.7773C546.295 78.0772 580.195 77.0772 596.895 78.7773C634.095 82.6772 666.095 94.9772 692.195 115.377C706.295 126.377 726.695 148.977 730.395 157.677L731.795 160.977L717.795 175.677C679.195 216.477 655.195 248.377 614.595 312.377C565.595 389.977 525.495 445.877 498.695 474.277C478.995 494.977 451.595 513.277 420.395 526.277C407.895 531.577 379.295 540.977 375.695 541.077C374.295 541.077 362.395 538.877 349.195 536.077C278.595 521.077 243.795 516.177 215.795 517.177C196.095 517.877 183.995 519.777 169.695 524.477C152.795 530.077 145.695 535.977 147.195 542.977C147.595 544.577 148.295 546.077 148.695 546.377C149.195 546.677 149.095 547.977 148.495 549.377C146.895 552.977 148.295 558.377 151.695 561.177C157.695 566.277 185.495 571.277 216.195 572.977C238.395 574.177 269.195 572.977 282.695 570.277C292.795 568.377 367.795 566.377 375.695 567.977C378.695 568.477 390.695 569.377 402.195 569.877C413.795 570.377 432.195 571.277 443.195 571.877C466.395 573.177 487.095 571.877 484.495 569.377C484.295 569.077 473.695 567.977 461.095 566.877C427.995 563.877 423.795 563.077 419.695 559.077C418.395 557.677 419.095 557.577 426.195 558.177C453.195 560.477 473.395 561.077 491.295 559.977C527.595 557.777 554.095 552.877 587.495 542.277C589.295 541.677 572.695 549.977 556.695 557.677C548.195 561.777 547.495 562.277 550.195 562.677C557.695 563.677 588.695 557.277 603.695 551.577C671.295 525.777 734.595 467.777 764.395 404.177C782.995 364.477 791.895 316.677 788.795 273.077C787.295 251.977 785.595 242.177 779.695 219.777C775.195 202.877 772.995 196.177 764.495 173.877C761.095 165.077 762.695 162.077 778.295 147.877C813.295 115.877 850.995 93.9772 882.195 87.4772C920.695 79.4772 957.595 85.0772 983.695 102.877C1000.5 114.277 1014 131.777 1020 149.777C1021.5 154.277 1022.7 156.377 1022.9 155.277C1023.2 154.177 1023.7 157.777 1024.2 163.277C1025.6 180.877 1022.9 204.877 1017.7 219.577C1015.3 226.577 1015.4 230.177 1017.9 230.677C1020.6 231.177 1023.4 225.577 1026.1 213.977C1030.1 196.877 1031.1 188.377 1031.1 171.377C1031 141.677 1024.1 119.777 1008.7 100.577C986.195 72.4772 953.895 60.5772 911.195 64.7773C856.695 70.0772 809.395 92.9772 753.095 141.377L748.995 144.877L741.795 135.477C708.995 92.3772 661.195 66.1772 603.095 59.3773C588.995 57.7772 547.095 57.4772 531.195 58.9772ZM598.695 65.9772C620.695 68.0772 645.095 74.4772 663.295 82.8772C672.095 86.9772 688.195 96.2773 689.195 97.8772C689.495 98.4772 687.195 97.2773 683.995 95.3772C663.995 83.6772 628.895 73.9772 594.695 70.7773C578.895 69.3772 520.295 70.1772 509.395 71.9772C498.395 73.7773 500.695 72.3772 512.395 70.0772C541.795 64.3772 568.495 63.0772 598.695 65.9772ZM938.695 71.8772C962.195 74.5772 984.195 84.9772 998.195 99.9772C1000.8 102.677 999.595 101.977 994.995 97.7773C982.895 86.9772 972.995 81.9772 956.095 78.2773C945.695 75.9772 921.295 75.9772 906.195 78.2773C870.395 83.7773 819.495 102.377 796.195 118.577C791.195 121.977 791.195 122.077 794.695 118.877C801.595 112.677 821.495 100.277 836.295 92.7773C870.295 75.7773 906.995 68.2773 938.695 71.8772ZM500.395 73.4772C500.095 73.7773 499.195 73.8772 498.495 73.5772C497.695 73.2773 497.995 72.9772 499.095 72.9772C500.195 72.8772 500.795 73.1772 500.395 73.4772ZM695.795 102.577C697.095 104.177 696.995 104.277 695.495 102.977C694.495 102.277 693.695 101.477 693.695 101.277C693.695 100.477 694.495 100.977 695.795 102.577ZM790.695 122.277C790.695 122.477 789.895 123.277 788.995 123.977C787.395 125.277 787.295 125.177 788.595 123.577C789.895 121.977 790.695 121.477 790.695 122.277ZM499.995 187.377C508.695 189.177 517.295 193.777 522.795 199.577L527.195 204.277L522.495 200.177C513.395 192.477 495.395 189.177 479.195 192.377C474.195 193.377 469.795 194.477 469.295 194.977C468.695 195.477 466.795 195.877 464.995 195.877C462.195 195.877 461.695 195.577 461.695 193.377C461.695 188.777 469.995 186.177 485.195 185.977C489.595 185.977 496.195 186.577 499.995 187.377ZM745.795 190.877C746.795 191.477 748.595 193.777 749.695 195.977C752.595 201.677 757.395 221.277 759.195 235.177C761.095 250.177 761.095 277.077 759.195 291.377C758.295 297.377 757.195 305.477 756.695 309.377C753.995 329.877 739.495 367.377 722.695 397.477C669.795 491.877 599.495 543.777 511.895 552.977C496.895 554.477 447.195 553.577 432.295 551.477C426.295 550.677 421.295 549.777 421.095 549.677C420.995 549.477 425.595 547.877 431.495 546.077C452.095 539.777 467.395 533.677 487.195 523.877C521.095 507.077 542.095 492.577 564.295 470.377C581.495 453.277 592.095 440.077 608.195 415.877C627.395 386.877 639.895 364.277 660.795 320.077C684.795 269.377 702.495 238.877 726.895 205.677C737.795 190.877 740.995 188.377 745.795 190.877ZM442.695 419.277C442.695 419.477 441.895 420.277 440.995 420.977C439.395 422.277 439.295 422.177 440.595 420.577C441.895 418.977 442.695 418.477 442.695 419.277ZM437.695 423.277C437.695 423.477 436.895 424.277 435.995 424.977C434.395 426.277 434.295 426.177 435.595 424.577C436.895 422.977 437.695 422.477 437.695 423.277ZM433.695 426.277C433.695 426.477 432.895 427.277 431.995 427.977C430.395 429.277 430.295 429.177 431.595 427.577C432.895 425.977 433.695 425.477 433.695 426.277ZM429.695 429.277C429.695 431.277 395.595 452.577 383.195 458.377C360.695 468.977 343.595 473.177 322.195 473.177C303.195 473.177 292.295 470.577 278.395 462.877C268.895 457.577 268.995 457.477 279.395 461.477C297.795 468.477 326.395 470.377 348.595 465.977C354.895 464.777 364.795 462.177 370.595 460.277C384.295 455.777 406.495 444.677 419.195 435.877C430.195 428.377 429.695 428.677 429.695 429.277ZM419.195 537.477C405.095 544.377 399.195 546.177 393.095 545.277C388.395 544.577 388.495 544.577 405.795 539.277C415.395 536.377 424.295 533.577 425.695 532.977C432.295 530.377 429.095 532.477 419.195 537.477ZM164.495 536.377C162.495 537.077 159.695 538.477 158.295 539.377C156.895 540.377 155.695 540.677 155.695 540.077C155.695 538.577 157.795 537.177 161.695 536.077C166.795 534.577 168.795 534.777 164.495 536.377ZM242.195 551.877C248.895 552.377 242.395 552.577 222.695 552.277C206.495 551.977 190.995 551.377 188.195 550.877C182.195 549.777 226.995 550.577 242.195 551.877ZM183.595 557.877C200.995 559.977 234.495 561.077 258.995 560.477C276.395 559.977 283.695 560.077 283.195 560.777C282.895 561.377 283.295 561.877 284.095 561.877C284.995 561.877 285.695 562.477 285.695 563.277C285.695 565.877 277.595 566.177 237.195 565.577C182.195 564.677 169.195 563.177 171.095 558.277C171.395 557.577 171.095 556.777 170.395 556.477C169.695 556.177 170.595 556.077 172.195 556.377C173.895 556.577 178.995 557.277 183.595 557.877Z" fill="black"/>
<path d="M531.195 58.9772C452.695 66.2773 381.895 95.5772 316.495 147.677C300.195 160.677 270.895 189.677 259.595 203.877C236.695 232.877 220.995 263.377 212.495 295.677C210.895 302.077 208.795 309.577 208.095 312.177C204.695 323.577 203.295 337.177 203.295 359.377C203.195 377.177 203.595 382.977 205.095 389.877C210.595 414.977 220.695 433.877 237.095 449.677C259.795 471.377 285.395 480.877 321.695 480.877C343.095 480.877 360.595 477.677 380.195 470.377C413.495 457.777 452.095 429.477 484.995 393.377C523.995 350.677 544.095 311.177 548.795 268.077C550.095 255.477 548.595 232.577 545.595 221.877C539.895 200.977 523.895 185.177 503.595 180.377C495.395 178.477 481.995 178.477 473.795 180.377C457.695 184.177 443.095 196.677 439.795 209.377C439.295 211.577 438.095 216.077 437.295 219.477C431.495 241.677 441.495 257.877 460.895 257.877C470.395 257.877 477.495 254.977 483.995 248.577C491.095 241.577 493.995 235.277 494.095 226.677C494.195 222.577 493.695 219.477 492.995 218.777C492.295 218.077 491.695 215.277 491.695 212.677C491.695 209.977 491.095 206.377 490.295 204.577L488.995 201.277L495.395 201.477C504.195 201.777 512.995 206.077 521.095 214.277C534.595 227.777 540.695 248.077 537.195 267.977C531.395 301.977 509.995 339.677 475.895 376.077C434.395 420.477 392.995 448.177 354.295 457.377C303.095 469.577 258.795 453.477 240.895 416.077C236.295 406.477 234.895 393.277 236.595 375.077C245.095 280.877 331.295 166.977 433.995 114.077C463.495 98.8772 499.395 86.5772 531.395 80.7773C546.295 78.0772 580.195 77.0772 596.895 78.7773C634.095 82.6772 666.095 94.9772 692.195 115.377C706.295 126.377 726.695 148.977 730.395 157.677L731.795 160.977L717.795 175.677C679.195 216.477 655.195 248.377 614.595 312.377C565.595 389.977 525.495 445.877 498.695 474.277C478.995 494.977 451.595 513.277 420.395 526.277C407.895 531.577 379.295 540.977 375.695 541.077C374.295 541.077 362.395 538.877 349.195 536.077C278.595 521.077 243.795 516.177 215.795 517.177C196.095 517.877 183.995 519.777 169.695 524.477C152.795 530.077 145.695 535.977 147.195 542.977C147.595 544.577 148.295 546.077 148.695 546.377C149.195 546.677 149.095 547.977 148.495 549.377C146.895 552.977 148.295 558.377 151.695 561.177C157.695 566.277 185.495 571.277 216.195 572.977C238.395 574.177 269.195 572.977 282.695 570.277C292.795 568.377 367.795 566.377 375.695 567.977C378.695 568.477 390.695 569.377 402.195 569.877C413.795 570.377 432.195 571.277 443.195 571.877C466.395 573.177 487.095 571.877 484.495 569.377C484.295 569.077 473.695 567.977 461.095 566.877C427.995 563.877 423.795 563.077 419.695 559.077C418.395 557.677 419.095 557.577 426.195 558.177C453.195 560.477 473.395 561.077 491.295 559.977C527.595 557.777 554.095 552.877 587.495 542.277C589.295 541.677 572.695 549.977 556.695 557.677C548.195 561.777 547.495 562.277 550.195 562.677C557.695 563.677 588.695 557.277 603.695 551.577C671.295 525.777 734.595 467.777 764.395 404.177C782.995 364.477 791.895 316.677 788.795 273.077C787.295 251.977 785.595 242.177 779.695 219.777C775.195 202.877 772.995 196.177 764.495 173.877C761.095 165.077 762.695 162.077 778.295 147.877C813.295 115.877 850.995 93.9772 882.195 87.4772C920.695 79.4772 957.595 85.0772 983.695 102.877C1000.5 114.277 1014 131.777 1020 149.777C1021.5 154.277 1022.7 156.377 1022.9 155.277C1023.2 154.177 1023.7 157.777 1024.2 163.277C1025.6 180.877 1022.9 204.877 1017.7 219.577C1015.3 226.577 1015.4 230.177 1017.9 230.677C1020.6 231.177 1023.4 225.577 1026.1 213.977C1030.1 196.877 1031.1 188.377 1031.1 171.377C1031 141.677 1024.1 119.777 1008.7 100.577C986.195 72.4772 953.895 60.5772 911.195 64.7773C856.695 70.0772 809.395 92.9772 753.095 141.377L748.995 144.877L741.795 135.477C708.995 92.3772 661.195 66.1772 603.095 59.3773C588.995 57.7772 547.095 57.4772 531.195 58.9772ZM598.695 65.9772C620.695 68.0772 645.095 74.4772 663.295 82.8772C672.095 86.9772 688.195 96.2773 689.195 97.8772C689.495 98.4772 687.195 97.2773 683.995 95.3772C663.995 83.6772 628.895 73.9772 594.695 70.7773C578.895 69.3772 520.295 70.1772 509.395 71.9772C498.395 73.7773 500.695 72.3772 512.395 70.0772C541.795 64.3772 568.495 63.0772 598.695 65.9772ZM938.695 71.8772C962.195 74.5772 984.195 84.9772 998.195 99.9772C1000.8 102.677 999.595 101.977 994.995 97.7773C982.895 86.9772 972.995 81.9772 956.095 78.2773C945.695 75.9772 921.295 75.9772 906.195 78.2773C870.395 83.7773 819.495 102.377 796.195 118.577C791.195 121.977 791.195 122.077 794.695 118.877C801.595 112.677 821.495 100.277 836.295 92.7773C870.295 75.7773 906.995 68.2773 938.695 71.8772ZM500.395 73.4772C500.095 73.7773 499.195 73.8772 498.495 73.5772C497.695 73.2773 497.995 72.9772 499.095 72.9772C500.195 72.8772 500.795 73.1772 500.395 73.4772ZM695.795 102.577C697.095 104.177 696.995 104.277 695.495 102.977C694.495 102.277 693.695 101.477 693.695 101.277C693.695 100.477 694.495 100.977 695.795 102.577ZM790.695 122.277C790.695 122.477 789.895 123.277 788.995 123.977C787.395 125.277 787.295 125.177 788.595 123.577C789.895 121.977 790.695 121.477 790.695 122.277ZM499.995 187.377C508.695 189.177 517.295 193.777 522.795 199.577L527.195 204.277L522.495 200.177C513.395 192.477 495.395 189.177 479.195 192.377C474.195 193.377 469.795 194.477 469.295 194.977C468.695 195.477 466.795 195.877 464.995 195.877C462.195 195.877 461.695 195.577 461.695 193.377C461.695 188.777 469.995 186.177 485.195 185.977C489.595 185.977 496.195 186.577 499.995 187.377ZM745.795 190.877C746.795 191.477 748.595 193.777 749.695 195.977C752.595 201.677 757.395 221.277 759.195 235.177C761.095 250.177 761.095 277.077 759.195 291.377C758.295 297.377 757.195 305.477 756.695 309.377C753.995 329.877 739.495 367.377 722.695 397.477C669.795 491.877 599.495 543.777 511.895 552.977C496.895 554.477 447.195 553.577 432.295 551.477C426.295 550.677 421.295 549.777 421.095 549.677C420.995 549.477 425.595 547.877 431.495 546.077C452.095 539.777 467.395 533.677 487.195 523.877C521.095 507.077 542.095 492.577 564.295 470.377C581.495 453.277 592.095 440.077 608.195 415.877C627.395 386.877 639.895 364.277 660.795 320.077C684.795 269.377 702.495 238.877 726.895 205.677C737.795 190.877 740.995 188.377 745.795 190.877ZM442.695 419.277C442.695 419.477 441.895 420.277 440.995 420.977C439.395 422.277 439.295 422.177 440.595 420.577C441.895 418.977 442.695 418.477 442.695 419.277ZM437.695 423.277C437.695 423.477 436.895 424.277 435.995 424.977C434.395 426.277 434.295 426.177 435.595 424.577C436.895 422.977 437.695 422.477 437.695 423.277ZM433.695 426.277C433.695 426.477 432.895 427.277 431.995 427.977C430.395 429.277 430.295 429.177 431.595 427.577C432.895 425.977 433.695 425.477 433.695 426.277ZM429.695 429.277C429.695 431.277 395.595 452.577 383.195 458.377C360.695 468.977 343.595 473.177 322.195 473.177C303.195 473.177 292.295 470.577 278.395 462.877C268.895 457.577 268.995 457.477 279.395 461.477C297.795 468.477 326.395 470.377 348.595 465.977C354.895 464.777 364.795 462.177 370.595 460.277C384.295 455.777 406.495 444.677 419.195 435.877C430.195 428.377 429.695 428.677 429.695 429.277ZM419.195 537.477C405.095 544.377 399.195 546.177 393.095 545.277C388.395 544.577 388.495 544.577 405.795 539.277C415.395 536.377 424.295 533.577 425.695 532.977C432.295 530.377 429.095 532.477 419.195 537.477ZM164.495 536.377C162.495 537.077 159.695 538.477 158.295 539.377C156.895 540.377 155.695 540.677 155.695 540.077C155.695 538.577 157.795 537.177 161.695 536.077C166.795 534.577 168.795 534.777 164.495 536.377ZM242.195 551.877C248.895 552.377 242.395 552.577 222.695 552.277C206.495 551.977 190.995 551.377 188.195 550.877C182.195 549.777 226.995 550.577 242.195 551.877ZM183.595 557.877C200.995 559.977 234.495 561.077 258.995 560.477C276.395 559.977 283.695 560.077 283.195 560.777C282.895 561.377 283.295 561.877 284.095 561.877C284.995 561.877 285.695 562.477 285.695 563.277C285.695 565.877 277.595 566.177 237.195 565.577C182.195 564.677 169.195 563.177 171.095 558.277C171.395 557.577 171.095 556.777 170.395 556.477C169.695 556.177 170.595 556.077 172.195 556.377C173.895 556.577 178.995 557.277 183.595 557.877Z" stroke="black" stroke-width="2" mask="url(#path-2-inside-1)"/>
</g>
</g>
</g>
<defs>
<filter id="filter0_d" x="143" y="58" width="892.095" height="523.442" filterUnits="userSpaceOnUse" color-interpolation-filters="sRGB">
<feFlood flood-opacity="0" result="BackgroundImageFix"/>
<feColorMatrix in="SourceAlpha" type="matrix" values="0 0 0 0 0 0 0 0 0 0 0 0 0 0 0 0 0 0 127 0"/>
<feOffset dy="4"/>
<feGaussianBlur stdDeviation="2"/>
<feColorMatrix type="matrix" values="0 0 0 0 0 0 0 0 0 0 0 0 0 0 0 0 0 0 0.25 0"/>
<feBlend mode="normal" in2="BackgroundImageFix" result="effect1_dropShadow"/>
<feBlend mode="normal" in="SourceGraphic" in2="effect1_dropShadow" result="shape"/>
</filter>
</defs>
</svg>
